<svg width="160" height="160" viewBox="0 0 160 160" fill="none" xmlns="http://www.w3.org/2000/svg">
<circle cx="80" cy="80" r="80" fill="black"/>
<mask id="mask0_7_33" style="mask-type:luminance" maskUnits="userSpaceOnUse" x="16" y="8" width="130" height="118">
<path d="M146 8.698H16V125.611H146V8.698Z" fill="white"/>
</mask>
<g mask="url(#mask0_7_33)">
<path d="M138.752 92.2888C137.021 91.1876 135.173 90.2776 133.243 89.575C132.358 89.2142 131.446 88.8415 130.53 88.4256L130.336 85.6377C130.171 83.2769 129.994 80.7515 129.827 78.2227C129.715 76.5095 129.613 74.794 129.511 73.0808C129.302 69.5785 129.086 65.9564 128.781 62.4014C128.548 59.6798 128.2 59.3785 125.419 59.4375C121.239 59.5319 116.991 59.659 112.883 59.7815C108.349 59.9175 103.661 60.0575 99.0496 60.1542C95.6238 60.2256 92.2416 60.2104 88.6592 60.1901C87.1332 60.1823 85.5918 60.1744 84.0205 60.1733L84.5722 42.316C93.5778 40.9266 98.9456 35.5992 100.53 26.4777C101.726 19.5962 98.4274 13.8759 91.9222 11.5489C89.3703 10.6108 86.7448 9.88493 84.072 9.37865C79.5118 8.55351 75.8966 9.23474 73.326 11.4021C69.1916 14.8909 66.6001 18.5811 65.4001 22.6836C63.4739 29.2791 65.5041 35.0443 71.1167 38.9176C72.2024 39.6185 73.3486 40.2216 74.5424 40.7196C75.042 40.9445 75.5417 41.1694 76.0306 41.4127C76.5393 41.6617 77.0536 41.8922 77.3238 42.0114V60.9389C74.8368 61.1165 72.3858 61.2881 69.9705 61.4537C64.1781 61.855 58.7074 62.2338 53.1558 62.6902C48.1819 63.0972 43.1345 63.598 38.2533 64.0825C36.3895 64.2677 34.5263 64.4511 32.6633 64.6328C30.4951 64.843 29.3449 66.0289 29.3375 68.0614C29.3296 70.2872 29.3669 72.1202 29.4563 73.8306C29.6637 77.8152 29.8937 81.7987 30.1226 85.7613L30.3798 90.2355C23.7634 93.7029 19.544 98.4224 17.4838 104.659C16.0069 109.13 16.2234 113.596 18.0937 117.23C18.989 118.935 20.2216 120.441 21.7174 121.66C23.2132 122.879 24.9414 123.785 26.798 124.322C28.9264 125.009 31.1487 125.363 33.3862 125.374C37.865 125.342 42.2103 123.854 45.7588 121.136C53.3893 115.503 53.8595 106.086 51.7575 99.1518C50.0415 93.4893 45.9793 90.1865 39.685 89.335C39.0485 89.2491 38.4104 89.1725 37.731 89.0917L36.9731 89L36.2213 70.2209C41.6689 68.9146 73.6635 66.818 77.8088 67.4858L76.7468 88.6414L76.2335 88.8325C75.7378 89.0174 75.2528 89.1985 74.764 89.375C70.1117 91.0477 66.18 94.2622 63.6293 98.4774C61.9348 101.262 61.1331 104.495 61.3308 107.744C61.5287 110.994 62.7166 114.106 64.7365 116.667C69.5686 122.85 78.781 125.512 87.1394 123.144C94.0995 121.172 99.1746 114.805 100.069 106.925C101.009 98.6493 97.6926 93.1375 89.9316 90.0736C89.0018 89.7066 88.0274 89.4243 87.0851 89.1513C86.6465 89.0247 86.2074 88.8977 85.7727 88.7617L83.7944 88.1434L83.0596 67.0143C91.92 65.9817 119.785 65.7821 123.229 66.4926V70.6981C123.229 75.9125 123.229 81.0753 123.22 86.2374C123.21 86.6888 123.175 87.139 123.115 87.5864C123.094 87.7786 123.07 87.9799 123.049 88.1889L122.51 88.3688C122.033 88.5284 121.556 88.6869 121.079 88.8438C117.424 90.0191 114.158 92.1606 111.633 95.0402C109.819 97.1853 108.537 99.7233 107.891 102.452C107.244 105.18 107.251 108.021 107.911 110.745C108.807 114.122 111.246 118.624 117.772 120.893C126.124 123.795 133.954 122.151 140.416 116.136C142.159 114.542 143.525 112.582 144.416 110.4C145.308 108.218 145.703 105.867 145.574 103.514C145.353 100.393 143.985 95.9108 138.752 92.2888ZM135.93 111.248C133.158 114.118 129.544 115.535 124.216 115.844C124.004 115.818 123.78 115.795 123.546 115.77C122.988 115.714 122.41 115.653 121.835 115.542C118.231 114.851 115.477 112.994 114.079 110.314C112.682 107.635 112.745 104.332 114.254 101.01C116.11 96.9218 119.265 94.215 123.378 93.1819C123.887 93.0594 124.408 92.9992 124.932 93.0037C126.712 93.0801 128.461 93.4939 130.085 94.2229C132.313 95.2802 134.325 96.7368 136.02 98.521C139.626 102.108 139.59 107.461 135.93 111.248ZM80.8864 94.4893C81.7908 94.8266 82.7312 95.1183 83.639 95.4015C85.1029 95.8225 86.5368 96.3416 87.9301 96.9549C91.4412 98.603 93.0069 101.154 93.0069 105.227C93.0069 112.196 88.9334 116.779 81.8275 117.805C75.2455 118.752 68.9893 115.114 67.2767 109.34C66.8285 108.008 66.6799 106.595 66.8416 105.201C67.0032 103.806 67.4711 102.464 68.2121 101.268C69.253 99.684 70.4488 98.2052 71.782 96.8537C73.651 94.88 75.6502 93.9003 77.8336 93.9003C78.8788 93.9132 79.9125 94.1127 80.8864 94.4893ZM77.2074 15.0494C77.9495 14.6643 78.768 14.4472 79.6045 14.4138C79.8244 14.4118 80.0436 14.4371 80.2567 14.4891C83.3242 15.2654 86.3413 16.2271 89.2906 17.3686C92.7175 18.7025 94.3668 21.4353 94.061 25.2732C93.4868 32.4594 88.245 36.9762 80.3771 37.0678C80.1132 36.9948 79.7825 36.9184 79.4061 36.8312C78.1128 36.5685 76.8485 36.1823 75.6298 35.6779C70.0371 33.1664 68.1607 28.4546 70.4809 22.75C71.9307 19.1774 74.1942 16.5867 77.2074 15.0494ZM28.7119 97.4226C30.1989 96.4986 31.9234 96.0231 33.6767 96.0528C35.3758 96.065 37.0534 96.4314 38.6015 97.1285C42.0493 98.6563 44.391 101.407 44.872 104.484C44.998 105.287 45.0506 106.096 45.0924 106.747C45.1088 106.994 45.1235 107.214 45.1393 107.397C45.0828 112.613 42.6524 116.281 38.1007 118.003C34.1266 119.506 30.7986 119.57 27.6295 118.203C23.9341 116.609 22.0977 113.732 22.3204 109.884C22.5725 105.516 24.4535 101.593 28.0703 97.8946C28.24 97.7358 28.4267 97.5971 28.6271 97.4793L28.7119 97.4226Z" fill="white"/>
</g>
</svg>
